<?xml version="1.0" encoding="utf-8"?>
<!-- Generator: Adobe Illustrator 24.3.0, SVG Export Plug-In . SVG Version: 6.00 Build 0)  -->
<svg version="1.1" id="Capa_1" xmlns="http://www.w3.org/2000/svg" xmlns:xlink="http://www.w3.org/1999/xlink" x="0px" y="0px"
	 viewBox="0 0 512 398" style="enable-background:new 0 0 512 398;" xml:space="preserve">
<style type="text/css">
	.st0{fill:#848484;}
	.st1{fill:#707070;}
	.st2{fill:#999999;}
	.st3{fill:#777777;}
	.st4{fill:#A5A5A5;}
</style>
<path class="st0" d="M501.2,68.4v39.7l-111.5,85.2V51.3c10.6-8,25.3-19,36.7-27.6c16.8-12.6,40.4-12.1,55.9,2
	C493.9,36.3,501.2,51.5,501.2,68.4z"/>
<path class="st1" d="M501.2,108.1v241.7c0,18.5-15,33.5-33.5,33.5h-78v-190L501.2,108.1z"/>
<polygon class="st2" points="389.7,51.3 389.7,193.3 256,295.4 122.3,193.3 122.3,51.3 256,152.7 "/>
<path class="st3" d="M122.3,51.3v141.9L10.8,108.1V68.4c0-16.9,7.3-32.1,18.9-42.6c15.6-14.1,39.1-14.5,55.9-2
	C97,32.3,111.7,43.3,122.3,51.3z"/>
<path class="st4" d="M122.3,193.3v190h-78c-18.5,0-33.5-15-33.5-33.5V108L122.3,193.3z"/>
</svg>
