<?xml version="1.0" encoding="utf-8"?>
<!-- Generator: Adobe Illustrator 24.3.0, SVG Export Plug-In . SVG Version: 6.00 Build 0)  -->
<svg version="1.1" xmlns="http://www.w3.org/2000/svg" xmlns:xlink="http://www.w3.org/1999/xlink" x="0px" y="0px"
	 viewBox="0 0 496 497" style="enable-background:new 0 0 496 497;" xml:space="preserve">
<style type="text/css">
	.st0{display:none;}
	.st1{display:inline;}
	.st2{fill:#00010A;}
	.st3{fill:#FFFFFF;}
	.st4{fill:url(#SVGID_1_);}
	.st5{fill:#31D8FF;}
	.st6{display:inline;fill:#353535;}
	.st7{fill:url(#SVGID_2_);}
	.st8{fill:url(#SVGID_3_);}
	.st9{fill:#6A6A6A;}
	.st10{fill:#595959;}
	.st11{fill:#B0B0B0;}
	.st12{fill:#BCBCBC;}
	.st13{fill:#999999;}
	.st14{fill:#F7F7F7;}
</style>
<g id="Capa_1" class="st0">
	<g class="st1">
		<rect x="-3537.8" y="-891.7" class="st2" width="4673.5" height="2233.7"/>
		<path d="M1135.2-891.2v2232.7h-4672.5V-891.2H1135.2 M1136.2-892.2h-4674.5v2234.7h4674.5V-892.2L1136.2-892.2z"/>
	</g>
	<g class="st1">
		<path class="st3" d="M-3020.8,373.9c0-104,79.1-163.4,172.9-163.4c50.4,0,87.4,20.4,113,45.3l-26.2,33.8
			c-25.5-21.7-52.3-35.1-84.9-35.1c-71.5,0-120.6,47.9-120.6,119.3c0,70.8,48.5,118.1,119.3,118.1c38.3,0,70.2-17.2,95.7-38.9
			l23.6,34.5c-34.5,30.6-77.2,48.5-123.2,48.5C-2948,536-3020.8,476.6-3020.8,373.9z"/>
		<path class="st3" d="M-2672.2,218.2h44l5.1,73.4h1.3c32.5-50.4,81-81,138.5-81c23,0,42.1,3.2,61.3,12.8l-12.1,45.3
			c-21.7-7-33.2-10.2-57.4-10.2c-46.6,0-90.6,23.6-127.6,88.7v181.2h-53V218.2z"/>
		<path class="st3" d="M-2381.6,655.3l10.8-42.1c8.3,2.6,18.5,4.5,28.1,4.5c43.4,0,69.6-27.4,84.9-65.7l8.9-23l-144.2-310.8h53.6
			l75.3,171c12.1,27.4,25.5,60,38.3,90h2.6c10.8-29.4,23-61.9,33.2-90l67-171h51.1l-137.2,335.7c-23,61.3-60.6,107.8-131.5,107.8
			C-2355.5,661.7-2370.8,659.2-2381.6,655.3z"/>
		<path class="st3" d="M-2034.8,218.2h43.4l4.5,39.6h1.9c28.7-27.4,69.6-47.2,107.2-47.2c83.6,0,128.3,61.9,128.3,158.3
			c0,105.3-66.4,167.2-141,167.2c-28.7,0-64.5-14.7-92.5-40.2h-1.3l2.6,58.7v104.7h-53V218.2z M-1803.8,368.8
			c0-68.3-25.5-113.6-87.4-113.6c-27.4,0-59.3,14-90.6,45.9v154.4c28.7,26.2,61.3,35.7,82.3,35.7
			C-1844.6,491.3-1803.8,445.4-1803.8,368.8z"/>
		<linearGradient id="SVGID_1_" gradientUnits="userSpaceOnUse" x1="-1205.4666" y1="300.2214" x2="-754.6323" y2="300.2214">
			<stop  offset="0" style="stop-color:#FFFFFF;stop-opacity:0"/>
			<stop  offset="0.6445" style="stop-color:#FFFFFF;stop-opacity:0.985"/>
			<stop  offset="0.6543" style="stop-color:#FFFFFF"/>
		</linearGradient>
		<path class="st4" d="M-802.2,142.9c-4,8.1-6.1,18.9-6.1,32.5v34.5h46.6v41.5h-46.6v276.9h-96.3V251.4h-300.9l22.6-41.5h278.3
			c0.4-47.2,9-82,25.8-104.3c16.8-22.3,43.9-33.5,81.4-33.5c6.8,0,14.6,0.3,23.3,1c8.7,0.6,15.2,1.6,19.5,2.9v56.8
			c-3.4-1.3-9.2-1.9-17.2-1.9C-788,130.8-798.1,134.9-802.2,142.9z"/>
		<path class="st3" d="M-695.2,138.5c-9.4-9.4-14-20.6-14-33.8c0-13.6,4.7-25.1,14-34.5c9.4-9.4,20.6-14,33.8-14
			c13.2,0,24.5,4.8,33.8,14.4c9.4,9.6,14,21,14,34.1c0,13.2-4.7,24.5-14,33.8c-9.4,9.4-20.6,14-33.8,14
			C-674.6,152.5-685.8,147.8-695.2,138.5z M-618,209.3v319h-90v-319H-618z"/>
		<path class="st3" d="M-306.3,528.3h-90v-35.1c-8.5,14-18.2,25.1-29,33.2c-10.8,8.1-24.1,12.1-39.9,12.1c-34.5,0-60.5-13-78.2-38.9
			c-17.7-25.9-26.5-60.4-26.5-103.4v-54.9c0-42.1,8.2-76.3,24.6-102.7c16.4-26.4,39-39.6,68-39.6c15.7,0,28.2,1.3,37.3,3.8
			c9.1,2.6,16.3,5.9,21.4,9.9c5.1,4,12.5,11,22.3,20.7v-24.2h90V528.3z M-420.2,261.3c-3.2-8.7-10.7-13.1-22.7-13.1
			c-10.6,0-17.5,4.5-20.7,13.4c-3.2,8.9-4.8,22.6-4.8,40.8v139.1c0,10.6,2.1,20.1,6.4,28.4c4.2,8.3,10.6,12.4,19.1,12.4
			c9.4,0,16.3-4.1,20.7-12.4c4.5-8.3,6.7-17.8,6.7-28.4V302.5C-415.5,283.7-417,270-420.2,261.3z"/>
		<path class="st3" d="M-56.7,251.4h-51.7v276.9h-102.7V251.4H-266v-41.5h54.9V81.7h102.7v128.3h51.7V251.4z"/>
		<g>
			<path class="st5" d="M-1327.1,85.5c-13.2,36.6-23.4,67.9-30.6,93.8c-5.1,17.9-9.6,26.8-13.4,26.8c-3.4,0-5.1-1.7-5.1-5.1
				c0-1.7,1.8-9.2,5.4-22.5c3.6-13.3,5.4-25.5,5.4-36.5c0-21.6-10-34.9-30-40c-8.1-2.1-21.9-3.2-41.5-3.2c-11.9,0-23,0.4-33.2,1.3
				l-148,368.9c-3.4,8.5-6.5,15.9-9.3,22.3c-2.8,6.4-4.1,10.4-4.1,12.1c0,9.8,13.6,14.7,40.8,14.7c3.8,0,5.7,1.3,5.7,3.8
				c0,4.7-3.6,7-10.8,7c-2.1,0-7.7-0.2-16.6-0.6c-17.9-0.8-38.9-1.3-63.2-1.3c-15.7,0-32.5,0.3-50.4,1c-6,0.6-13.4,1-22.3,1
				c-4.7,0-7-1.1-7-3.4c0-4.5,4.2-6.8,12.8-6.8c1.3,0,3.2,0,5.7,0h6.4c15.7,0,26.5-2.8,32.2-8.3c5.7-5.5,13.7-21.3,23.9-47.2
				L-1530,98.9h-25.5c-43.8,0-76.4,10-97.6,30c-12.3,11.5-27.2,33.8-44.7,67c-2.6,5.1-5.5,7.7-8.9,7.7c-2.1,0-3.2-1.3-3.2-3.8
				c0-1.3,0.6-3.4,1.9-6.4l9.6-21.8c4.7-10.3,11.7-25.9,21.1-46.8c5.5-10.7,11.7-23.7,18.5-39.1c14.5,1.3,67.6,1.9,159.5,1.9
				C-1448.3,87.4-1390.9,86.8-1327.1,85.5z"/>
			<path class="st5" d="M-977.3,228.9c0,44.2-11.1,87.6-33.2,130.3c-22.1,42.7-52.3,79.3-90.6,109.9
				c-56.6,44.6-113.2,66.9-169.7,66.9c-42.5,0-75.7-11.8-99.5-35.4c-23.8-23.6-35.7-56.6-35.7-99.1c0-42.9,11.1-87,33.2-132.2
				c22.1-45.2,51.9-84.2,89.3-116.9c56.2-49.3,113.6-73.9,172.3-73.9c43,0,76.4,15.5,100.2,46.5
				C-988.6,154.3-977.3,188.9-977.3,228.9z M-1037.9,188.1c0-24.2-4.7-45.7-14-64.3c-11.9-24.2-33.4-36.3-64.4-36.3
				c-53.2,0-103.6,38.4-151.2,115.3c-23.4,37.8-42,78-55.8,120.4c-13.8,42.5-20.7,80.9-20.7,115.3c0,59,26.8,88.6,80.4,88.6
				c31.9,0,63.2-13.4,93.8-40.1c40.8-35.3,73.6-85.2,98.3-149.7C-1049.2,278.6-1037.9,228.9-1037.9,188.1z"/>
		</g>
	</g>
</g>
<g id="Capa_10" class="st0">
	
		<image style="display:inline;overflow:visible;" width="55" height="103" xlink:href="../../../../CAPTURAS/Captura de pantalla 2021-06-16 a la(s) 19.55.24.png"  transform="matrix(1 0 0 1 688.4843 -151.9337)">
	</image>
	<rect class="st6" width="496" height="496"/>
</g>
<g id="Capa_1_copia">
	<g>
		
			<image style="overflow:visible;opacity:0.3;" width="513" height="513" xlink:href="25F44134DB19ABE9.png"  transform="matrix(1 0 0 1 -8 -7)">
		</image>
		<g>
			<circle class="st2" cx="247.3" cy="248.3" r="237.8"/>
		</g>
	</g>
</g>
<g id="Capa_9">
	<radialGradient id="SVGID_2_" cx="245.6664" cy="248.2628" r="165" gradientUnits="userSpaceOnUse">
		<stop  offset="0.6425" style="stop-color:#31D8FF"/>
		<stop  offset="0.6927" style="stop-color:#38D6FF"/>
		<stop  offset="0.7683" style="stop-color:#4DD2FF"/>
		<stop  offset="0.86" style="stop-color:#6FCBFF"/>
		<stop  offset="0.9634" style="stop-color:#9EC1FF"/>
		<stop  offset="1" style="stop-color:#B0BDFF"/>
	</radialGradient>
	<circle class="st7" cx="245.7" cy="248.3" r="165"/>
	<linearGradient id="SVGID_3_" gradientUnits="userSpaceOnUse" x1="151.7802" y1="228.8536" x2="485.0245" y2="228.8536">
		<stop  offset="0" style="stop-color:#FFFFFF;stop-opacity:0"/>
		<stop  offset="0.6445" style="stop-color:#FFFFFF;stop-opacity:0.985"/>
		<stop  offset="0.6543" style="stop-color:#FFFFFF"/>
	</linearGradient>
	<path class="st8" d="M485,249H151.8l25-40.2h305C481.8,208.7,485,225.4,485,249z"/>
</g>
<g id="moneda_copia_2" class="st0">
	<g class="st1">
		<path class="st9" d="M116.5,75.7L346.6,437c0.9,1.4,2.7,1.8,4.1,0.9l14.2-9c1.4-0.9,1.8-2.7,0.9-4.1L135.7,63.4
			c-0.9-1.4-2.7-1.8-4.1-0.9l-14.2,9C116,72.4,115.6,74.3,116.5,75.7z"/>
	</g>
</g>
<g id="moneda_copia" class="st0">
	<g class="st1">
		<path class="st10" d="M415.7,125.6L54.3,355.6c-1.4,0.9-1.8,2.7-0.9,4.1l9,14.2c0.9,1.4,2.7,1.8,4.1,0.9l361.3-230.1
			c1.4-0.9,1.8-2.7,0.9-4.1l-9-14.2C418.9,125.1,417.1,124.7,415.7,125.6z"/>
	</g>
</g>
<g id="_x39_0_1_" class="st0">
	<g class="st1">
		<path class="st11" d="M235.5,34.1l63.2,423.7c0.2,1.6-0.9,3.2-2.5,3.4l-46.4,6.9c-1.6,0.2-3.2-0.9-3.4-2.5L183.2,41.9
			c-0.2-1.6,0.9-3.2,2.5-3.4l46.4-6.9C233.7,31.3,235.2,32.5,235.5,34.1z"/>
	</g>
</g>
<g id="_x34_5" class="st0">
	<g class="st1">
		<path class="st12" d="M389.6,93.4L134.7,437.7c-1,1.3-2.9,1.6-4.2,0.6l-37.7-27.9c-1.3-1-1.6-2.9-0.6-4.2L347.1,62
			c1-1.3,2.9-1.6,4.2-0.6L389,89.2C390.3,90.2,390.6,92.1,389.6,93.4z"/>
	</g>
</g>
<g id="_x34_5_1_" class="st0">
	<g class="st1">
		<path class="st13" d="M84.5,101.2L428.8,356c1.3,1,1.6,2.9,0.6,4.2l-27.9,37.7c-1,1.3-2.9,1.6-4.2,0.6L53,143.7
			c-1.3-1-1.6-2.9-0.6-4.2l27.9-37.7C81.3,100.5,83.2,100.2,84.5,101.2z"/>
	</g>
</g>
<g id="moneda" class="st0">
	<g class="st1">
		<path class="st14" d="M456.6,244.4L33,307.6c-1.6,0.2-3.2-0.9-3.4-2.5l-6.9-46.4c-0.2-1.6,0.9-3.2,2.5-3.4l423.7-63.2
			c1.6-0.2,3.2,0.9,3.4,2.5l6.9,46.4C459.4,242.6,458.3,244.2,456.6,244.4z"/>
	</g>
</g>
</svg>
