<?xml version="1.0" encoding="utf-8"?>
<!-- Generator: Adobe Illustrator 24.3.0, SVG Export Plug-In . SVG Version: 6.00 Build 0)  -->
<svg version="1.1" xmlns="http://www.w3.org/2000/svg" xmlns:xlink="http://www.w3.org/1999/xlink" x="0px" y="0px"
	 viewBox="0 0 1857 411" style="enable-background:new 0 0 1857 411;" xml:space="preserve">
<style type="text/css">
	.st0{display:none;}
	.st1{display:inline;}
	.st2{fill:#00010A;}
	.st3{fill:#FFFFFF;}
	.st4{fill:url(#SVGID_1_);}
	.st5{fill:#31D8FF;}
	.st6{fill:none;}
</style>
<g id="Capa_1" class="st0">
	<g class="st1">
		<rect x="0.5" y="21.5" class="st2" width="1901" height="389"/>
		<path d="M1901,22v388H1V22H1901 M1902,21H0v390h1902V21L1902,21z"/>
	</g>
</g>
<g id="Capa_2">
	<path class="st3" d="M19,215.5c0-63.8,48.5-100.2,106.1-100.2c30.9,0,53.6,12.5,69.3,27.8l-16,20.7c-15.7-13.3-32.1-21.5-52.1-21.5
		c-43.8,0-74,29.4-74,73.2c0,43.4,29.7,72.4,73.2,72.4c23.5,0,43.1-10.6,58.7-23.9l14.5,21.1c-21.1,18.8-47.4,29.7-75.5,29.7
		C63.6,314.9,19,278.5,19,215.5z"/>
	<path class="st3" d="M232.8,120h27l3.1,45h0.8c20-30.9,49.7-49.7,84.9-49.7c14.1,0,25.8,2,37.6,7.8l-7.4,27.8
		c-13.3-4.3-20.4-6.3-35.2-6.3c-28.6,0-55.6,14.5-78.3,54.4v111.2h-32.5V120z"/>
	<path class="st3" d="M411,388.1l6.7-25.8c5.1,1.6,11.4,2.7,17.2,2.7c26.6,0,42.7-16.8,52.1-40.3l5.5-14.1L404,120h32.9L483,224.9
		c7.4,16.8,15.7,36.8,23.5,55.2h1.6c6.7-18,14.1-38,20.4-55.2L569.5,120h31.3l-84.2,205.9c-14.1,37.6-37.2,66.1-80.6,66.1
		C427.1,392,417.7,390.4,411,388.1z"/>
	<path class="st3" d="M623.7,120h26.6l2.7,24.3h1.2c17.6-16.8,42.7-29,65.8-29c51.3,0,78.7,38,78.7,97.1
		c0,64.6-40.7,102.5-86.5,102.5c-17.6,0-39.5-9-56.8-24.7h-0.8l1.6,36v64.2h-32.5V120z M765.4,212.3c0-41.9-15.7-69.7-53.6-69.7
		c-16.8,0-36.4,8.6-55.6,28.2v94.7c17.6,16,37.6,21.9,50.5,21.9C740.4,287.5,765.4,259.3,765.4,212.3z"/>
	<linearGradient id="SVGID_1_" gradientUnits="userSpaceOnUse" x1="1132.4064" y1="170.2692" x2="1408.921" y2="170.2692">
		<stop  offset="0" style="stop-color:#FFFFFF;stop-opacity:0"/>
		<stop  offset="0.6445" style="stop-color:#FFFFFF;stop-opacity:0.985"/>
		<stop  offset="0.6543" style="stop-color:#FFFFFF"/>
	</linearGradient>
	<path class="st4" d="M1379.8,73.8c-2.5,5-3.7,11.6-3.7,20v21.1h28.6v25.4H1376v169.8H1317V140.3h-184.5l13.9-25.4H1317
		c0.3-29,5.5-50.3,15.8-64c10.3-13.7,26.9-20.5,49.9-20.5c4.2,0,8.9,0.2,14.3,0.6c5.3,0.4,9.3,1,11.9,1.8v34.8
		c-2.1-0.8-5.6-1.2-10.6-1.2C1388.4,66.4,1382.2,68.8,1379.8,73.8z"/>
	<path class="st3" d="M1445.4,71.1c-5.7-5.7-8.6-12.7-8.6-20.7c0-8.3,2.9-15.4,8.6-21.1c5.7-5.7,12.7-8.6,20.7-8.6
		c8.1,0,15,2.9,20.7,8.8c5.7,5.9,8.6,12.9,8.6,20.9c0,8.1-2.9,15-8.6,20.7c-5.7,5.7-12.7,8.6-20.7,8.6
		C1458,79.7,1451.1,76.8,1445.4,71.1z M1492.7,114.5v195.7h-55.2V114.5H1492.7z"/>
	<path class="st3" d="M1683.9,310.2h-55.2v-21.5c-5.2,8.6-11.2,15.4-17.8,20.4c-6.7,5-14.8,7.4-24.5,7.4c-21.1,0-37.1-8-47.9-23.9
		c-10.8-15.9-16.2-37-16.2-63.4v-33.7c0-25.8,5-46.8,15.1-63c10-16.2,23.9-24.3,41.7-24.3c9.7,0,17.3,0.8,22.9,2.3
		c5.6,1.6,10,3.6,13.1,6.1c3.1,2.5,7.7,6.7,13.7,12.7v-14.9h55.2V310.2z M1614,146.4c-2-5.3-6.6-8-13.9-8c-6.5,0-10.8,2.7-12.7,8.2
		c-2,5.5-2.9,13.8-2.9,25V257c0,6.5,1.3,12.3,3.9,17.4c2.6,5.1,6.5,7.6,11.7,7.6c5.7,0,10-2.5,12.7-7.6c2.7-5.1,4.1-10.9,4.1-17.4
		v-85.3C1617,160.2,1616,151.7,1614,146.4z"/>
	<path class="st3" d="M1837,140.3h-31.7v169.8h-63V140.3h-33.7v-25.4h33.7V36.2h63v78.7h31.7V140.3z"/>
	<g>
		<path class="st5" d="M1057.8,38.6c-8.1,22.4-14.3,41.6-18.8,57.5c-3.1,11-5.9,16.4-8.2,16.4c-2.1,0-3.1-1-3.1-3.1
			c0-1,1.1-5.6,3.3-13.8c2.2-8.2,3.3-15.6,3.3-22.4c0-13.2-6.1-21.4-18.4-24.5c-5-1.3-13.4-1.9-25.4-1.9c-7.3,0-14.1,0.3-20.3,0.8
			l-90.8,226.3c-2.1,5.2-4,9.8-5.7,13.7c-1.7,3.9-2.5,6.4-2.5,7.4c0,6,8.3,9,25,9c2.3,0,3.5,0.8,3.5,2.3c0,2.9-2.2,4.3-6.7,4.3
			c-1.3,0-4.7-0.1-10.2-0.4c-11-0.5-23.9-0.8-38.7-0.8c-9.7,0-20,0.2-30.9,0.6c-3.7,0.4-8.2,0.6-13.7,0.6c-2.9,0-4.3-0.7-4.3-2.1
			c0-2.8,2.6-4.2,7.8-4.2c0.8,0,2,0,3.5,0h3.9c9.6,0,16.2-1.7,19.8-5.1c3.5-3.4,8.4-13,14.7-29l88.4-223.5h-15.7
			c-26.9,0-46.8,6.1-59.9,18.4c-7.6,7-16.7,20.7-27.4,41.1c-1.6,3.1-3.4,4.7-5.5,4.7c-1.3,0-2-0.8-2-2.4c0-0.8,0.4-2.1,1.2-3.9
			l5.9-13.4c2.9-6.3,7.2-15.9,12.9-28.7c3.4-6.6,7.2-14.6,11.3-24c8.9,0.8,41.5,1.2,97.8,1.2C983.4,39.8,1018.7,39.4,1057.8,38.6z"
			/>
		<path class="st5" d="M1272.3,126.5c0,27.1-6.8,53.7-20.3,79.9c-13.6,26.2-32.1,48.7-55.6,67.4c-34.7,27.4-69.4,41-104.1,41
			c-26.1,0-46.4-7.2-61.1-21.7c-14.6-14.5-21.9-34.7-21.9-60.8c0-26.3,6.8-53.3,20.4-81.1c13.6-27.7,31.8-51.7,54.8-71.7
			c34.4-30.2,69.7-45.3,105.7-45.3c26.3,0,46.8,9.5,61.4,28.5C1265.4,80.8,1272.3,102,1272.3,126.5z M1235.2,101.5
			c0-14.8-2.9-28-8.6-39.5c-7.3-14.8-20.5-22.3-39.5-22.3c-32.6,0-63.5,23.6-92.8,70.7c-14.4,23.2-25.8,47.8-34.2,73.9
			c-8.5,26-12.7,49.6-12.7,70.7c0,36.2,16.4,54.3,49.3,54.3c19.6,0,38.7-8.2,57.5-24.6c25-21.6,45.1-52.2,60.3-91.8
			C1228.2,157,1235.2,126.5,1235.2,101.5z"/>
	</g>
	<rect y="-1" class="st6" width="1857" height="419"/>
</g>
</svg>
